# xmcd
# 
# Track frame offsets:
#     150
#     16612
#     28477
#     40780
#     49722
#     61740
#     73147
#     87400
#     100155
#     110542
#     126297
# 
# Disc length: 1827
# 
# Revision: 2
# Processed by: cddbd v1.5.2PL0 Copyright (c) Steve Scherf et al.
# Submitted via: BonkEnc v1.0.8
# 
DISCID=9007210b
DTITLE=Melveen Leed - The Hawaiian Country Girl
DYEAR=1976
DGENRE=Hawaiian
TTITLE0=Morning Dew
TTITLE1=Music of Hawaii, Country Style
TTITLE2=Forever More
TTITLE3=Princess Pupule
TTITLE4=I CAn't Stop Loving You
TTITLE5=My Hearts In Hawaii
TTITLE6=Home Ain't Home Anymore
TTITLE7=Aloha No Wau Iko Maka
TTITLE8=No Letter Today
TTITLE9=Walk Through Paradise
TTITLE10=You are My Sunshine
EXTD=
EXTT0=
EXTT1=
EXTT2=
EXTT3=
EXTT4=
EXTT5=
EXTT6=
EXTT7=
EXTT8=
EXTT9=
EXTT10=
PLAYORDER=
